<?xml version="1.0" encoding="utf-8"?>
<!-- Generator: Adobe Illustrator 17.0.0, SVG Export Plug-In . SVG Version: 6.00 Build 0)  -->
<!DOCTYPE svg PUBLIC "-//W3C//DTD SVG 1.1//EN" "http://www.w3.org/Graphics/SVG/1.1/DTD/svg11.dtd">
<svg version="1.1" id="Layer_1" xmlns="http://www.w3.org/2000/svg" xmlns:xlink="http://www.w3.org/1999/xlink" x="0px" y="0px"
	 width="330.02px" height="243.53px" viewBox="0 0 330.02 243.53" style="enable-background:new 0 0 330.02 243.53;"
	 xml:space="preserve">
<style type="text/css">
	.st0{fill:#FFFFFF;}
</style>
<path class="st0" d="M261.93,228.41c-2.38-1.71-4.72-3.48-7.17-5.09c-0.73-0.48-1.79-0.78-2.66-0.7
	c-9.11,0.77-13.56-2.03-15.62-11.18c-0.86-3.84-2.8-5.51-6.03-6.93c-16.36-7.18-30.77-17.21-43.22-30.03
	c-11.94-12.28-16.6-26.95-14.59-43.89c1.02-8.6,2.14-17.23-0.59-25.77c-2.94-9.19-8.29-15.84-18.29-17.78
	c-13.14-2.56-24.71,7.45-22.16,20.66c1.76,9.11,5.99,17.84,9.79,26.44c2.99,6.77,5.72,13.38,5.71,20.96
	c-0.01,11.08-4.26,20.16-12.58,27.17c-4.81,4.06-10.29,7.32-15.44,10.99c-2.97,2.12-6.15,4.06-8.74,6.59
	c-3.55,3.48-2.69,6.96,2.21,7.97c3.78,0.78,8.05,0.84,11.77-0.11c5.6-1.43,10.82-4.24,16.35-6.03c4.37-1.41,8.95-2.93,13.45-3.01
	c6.89-0.12,12.28,6.84,11.36,13.7c-0.64,4.79-3.22,7.88-7.46,8.3c0.29-3.3,1.17-6.71,0.65-9.89c-0.27-1.64-3.01-2.88-4.36-4.06
	c-0.52,4.15-0.33,7.98-1.64,11.19c-0.95,2.31-3.64,4.3-6.02,5.54c-3.99,2.07-6.83-0.14-9.6-4.16c4.78,1.03,8.21,0.21,8.89-4.36
	c0.25-1.7-0.4-4.55-1.56-5.19c-1.48-0.81-4.43-0.61-5.79,0.42c-2.3,1.75-4.07,4.36-5.67,6.86c-2.36,3.68-5.33,5.56-9.85,5.54
	c-13-0.06-25.99,0.18-38.99,0.22c-1.27,0-2.69-0.24-3.78-0.84c-5.85-3.2-11.62-6.55-17.9-10.12c0.33-2.97,0.33-2.97,7.67-8.85
	c-5.11-2.12-10.57-3.76-15.42-6.49c-27.29-15.37-42.28-38.54-42.44-70.18c-0.07-12.93,5.45-24.04,15.89-31.99
	c14.66-11.15,33.52-3.95,37.25,13.31c-4.09-3.79-8.6-7.98-14.01-12.99c-0.43,2.98-0.62,4.33-0.86,5.99
	c-2.36-1.61-4.6-3.13-7.76-5.27c0.96,3.43,1.6,5.7,2.35,8.37c-2.94-1.37-5.3-2.46-8.96-4.16c2.12,3.54,3.54,5.91,5.27,8.79
	c-3.13-0.48-5.51-0.85-8.89-1.37c2.64,2.98,4.61,5.21,6.95,7.86c-3.16,0.35-5.5,0.61-8.95,0.99c3.46,2.53,5.96,4.36,8.51,6.21
	c-2.99,1.47-5.47,2.7-8.62,4.25c4.11,1.65,7.1,2.85,10.48,4.21c-3.04,2.57-5.54,4.69-8.05,6.82c0.17,0.34,0.34,0.67,0.5,1.01
	c3.26,0,6.52,0,9.93,0c-2.6,3.74-4.87,6.99-7.13,10.25c0.35,0.37,0.71,0.74,1.06,1.11c1.73-0.68,3.41-1.56,5.2-1.97
	c1.65-0.38,3.43-0.25,5.29-0.35c-2.26,3.91-4.24,7.34-6.74,11.66c5.03-1.96,8.67-3.38,13.33-5.19c-2.41,4.67-4.09,7.94-6.43,12.47
	c4.95-2.7,8.5-4.64,13.31-7.26c-1.85,5-3.11,8.39-4.78,12.9c4.29-3.55,7.51-6.22,10.73-8.88c0.31,0.26,0.61,0.52,0.92,0.78
	c-0.84,3.27-1.69,6.55-2.75,10.67c4.36-3.81,7.96-6.95,12.37-10.8c0,5.1,0,8.78,0,13.35c3.06-4.94,5.58-8.99,8.4-13.53
	c1.93,4.56,3.36,7.97,4.8,11.38c0.37-0.09,0.74-0.17,1.11-0.26c1.07-4.98,2.14-9.97,3.4-15.8c2.9,4.09,5.09,7.16,7.27,10.24
	c0.33-0.18,0.65-0.37,0.98-0.55c-0.94-4.52-1.88-9.04-2.95-14.15c4.07,2.37,7.38,4.29,11.33,6.59c-4.68-6.65-8.78-12.43-12.82-18.25
	c-0.52-0.75-0.75-1.7-1.25-2.87c3.74,1.19,7.06,2.24,10.38,3.3c-8.16-8.01-14.98-16.31-17.32-27.99c3.96,3.02,7.6,5.81,11.25,8.59
	c0.42-0.3,0.83-0.59,1.25-0.89c-7.72-9.45-13.43-19.58-12.08-32.49c3.15,4.58,6.12,8.88,9.09,13.19c0.62-0.26,1.24-0.51,1.86-0.77
	c-5.87-10.52-8.61-21.19-2.68-32.29c0.7,4.28,1.4,8.54,2.1,12.79c0.6-0.02,1.2-0.03,1.79-0.05c-0.16-14.56,4.32-26.53,18.37-33.69
	c-1.71,4.39-3.28,8.4-4.84,12.42c0.36,0.31,0.73,0.63,1.09,0.94c7.06-12.51,16.46-20.9,33.08-18.92
	c-5.08,3.65-10.37,6.09-11.74,12.89c13.01-8.97,25.79-13.35,40.68-3.37c-6.73,0.26-12.1,1.61-16.28,7.12
	c12.1-1.77,24.07-5.01,31.1,9.58c-5.62-1.92-10.55-5.41-17.2-1.56c10.98,2.19,19.75,5.91,22.4,17.4c-3.22-2.48-6.29-4.83-9.3-7.15
	c4.3,8.85,8.32,17.4,12.58,25.83c2.44,4.81,6.3,7.97,13.16,8.88c-10.23-7.72-13.08-17.74-14.25-29.37c2.68,2.13,4.79,3.81,6.9,5.49
	c0.44-0.17,0.89-0.34,1.33-0.51c-15.43-16.87-18.29-34.11-2.36-51.93c-3.27,11.16-2.76,21.35,7.46,29.25
	c-5.62-11-6.79-22.13-0.62-33.09c6.31-11.22,17.09-15.13,29.88-15.96c-0.54,0.16-1.09,0.3-1.62,0.5c-0.62,0.23-1.26,0.45-1.84,0.77
	c-7.64,4.27-12.18,14.66-10.12,23.14c2.01,8.27,9.66,11.76,16.91,7.44c3.27-1.94,6.14-4.56,9.2-6.86
	c7.84-5.88,12.06-5.94,20.48-0.91c2.72,1.63,5.92,2.45,8.96,3.67c-6.54,7.24-11.94,16.01-13.64,27.94
	c-3.71-7.92-7.36-14.91-16.57-13.45c-9.05,1.43-12.54,8.81-16.49,17.29c11.46-5.1,21.27-5.82,28.41,4.35
	c-2.63,5.45-5.04,10.46-7.37,15.29c-1.17-1.91-2.48-4.52-4.24-6.79c-3.62-4.66-8.51-6.07-13.25-4.16
	c-4.49,1.81-6.79,6.05-6.42,11.84c0.39,6.18,3.09,11.33,7.88,15.03c3.78,2.93,7.88,5.73,12.27,7.52
	c11.3,4.6,20.04,11.26,22.28,24.04c0.94,0.11,1.59,0.23,2.24,0.26c0.99,0.04,1.98,0.01,3.28,0.01c0.71-1.7,1.43-3.52,2.23-5.3
	c2.12-4.72,5.39-8.19,10.85-8.33c5.59-0.15,9.32,2.96,11.76,7.82c0.5,0.99,1.18,1.88,1.78,2.82c0,3,0,6,0,9
	c-0.77,1.08-1.53,2.15-2.19,3.09c-0.83-2.59-0.99-5.45-2.48-7.11c-1.49-1.64-4.73-3.32-6.48-2.75c-3.34,1.1-2.24,4.39-0.85,6.73
	c1.78,2.99,4.06,5.67,5.95,8.6c3.54,5.5,2.39,12.22-2.43,14.95c-5.42,3.07-11.18,0.59-14.23-6.14c8.45,0.36,11.32-0.71,12.16-4.55
	c0.97-4.43-2.65-9.01-8.65-10.95c-0.43,8.81-3.33,11.56-12.08,12.18c-1.57,0.11-3.52,1.53-4.44,2.92
	c-6.63,9.9-15.75,16.08-27.26,18.78c-3.14,0.74-6.37,1.12-10.93,1.9c6.23,3.44,11.34,6.25,16.35,9.02
	c12.05-14.12,17.72-16.76,24.65-11.74c6.05,4.38,7.78,13.92,3.94,19.73c-1.17-2.56-2-5.72-3.84-8.08c-2.47-3.16-6.13-3.51-9.31-0.92
	c-3.22,2.63-2.61,5.97-0.22,8.82c1.69,2.02,3.88,3.62,5.86,5.39c3.68,3.28,4.87,7.55,2.61,11.68c-1.45,2.66-4.69,4.34-7.13,6.46
	C267.93,228.41,264.93,228.41,261.93,228.41z M205.68,125.45c-0.45,0.12-0.89,0.25-1.34,0.37c2.16,7.32,3.89,14.81,6.69,21.87
	c1.15,2.9,4.25,5.61,7.13,7.12c5.59,2.93,10.77,0.33,11.36-5.87c0.51-5.35-0.5-10.85-0.89-17.11
	C217.62,139.63,216.85,139.37,205.68,125.45z M258.57,219.02c3.31,1.76,6.81,4.14,10.43,1.41c1.43-1.08,2.64-4.67,1.91-5.9
	c-1.55-2.62-4.45-4.44-7-6.78C261.73,212.36,260.19,215.6,258.57,219.02z M270.51,52.34c2.41-2.6,3.89-4.2,5.37-5.8
	c-1.94-1.4-3.76-3.63-5.86-3.93c-1.49-0.21-3.35,2.18-5.05,3.41C266.52,47.79,268.07,49.55,270.51,52.34z M229.82,53.79
	c0.27,3.31-1.28,8.37,3.52,9.69c3.89,1.07,6.27-2.78,7.75-5.21C237.27,56.75,233.67,55.32,229.82,53.79z M241.71,209.06
	c-0.34,0.29-0.68,0.58-1.02,0.87c1.38,1.57,2.61,3.34,4.25,4.54c0.35,0.25,2.21-1.57,4.16-3.01
	C245.7,210.36,243.71,209.71,241.71,209.06z"/>
</svg>
